<?xml version="1.0" encoding="UTF-8" standalone="no"?>
<!DOCTYPE svg PUBLIC "-//W3C//DTD SVG 1.1//EN"
 "http://www.w3.org/Graphics/SVG/1.1/DTD/svg11.dtd">
<!-- Generated by graphviz version 2.36.0 (20140111.2315)
 -->
<!-- Title: controllers_diagram Pages: 1 -->
<svg width="1833pt" height="1430pt"
 viewBox="0.00 0.00 1833.00 1430.00" xmlns="http://www.w3.org/2000/svg" xmlns:xlink="http://www.w3.org/1999/xlink">
<g id="graph0" class="graph" transform="scale(1 1) rotate(0) translate(4 1426)">
<title>controllers_diagram</title>
<polygon fill="none" stroke="none" points="-4,4 -4,-1426 1829,-1426 1829,4 -4,4"/>
<!-- _diagram_info -->
<g id="node1" class="node"><title>_diagram_info</title>
<text text-anchor="start" x="1576" y="-1407.6" font-family="Times,serif" font-size="13.00">Controllers diagram</text>
<text text-anchor="start" x="1576" y="-1393.6" font-family="Times,serif" font-size="13.00">Date: Apr 12 2016 &#45; 10:41</text>
<text text-anchor="start" x="1576" y="-1379.6" font-family="Times,serif" font-size="13.00">Migration version: 20160407210919</text>
<text text-anchor="start" x="1576" y="-1365.6" font-family="Times,serif" font-size="13.00">Generated by RailRoady 1.4.2</text>
<text text-anchor="start" x="1576" y="-1351.6" font-family="Times,serif" font-size="13.00">http://railroady.prestonlee.com</text>
</g>
<!-- WelcomeController -->
<g id="node2" class="node"><title>WelcomeController</title>
<path fill="none" stroke="black" d="M95.4691,-537.632C95.4691,-537.632 226.469,-537.632 226.469,-537.632 232.469,-537.632 238.469,-543.632 238.469,-549.632 238.469,-549.632 238.469,-648.632 238.469,-648.632 238.469,-654.632 232.469,-660.632 226.469,-660.632 226.469,-660.632 95.4691,-660.632 95.4691,-660.632 89.4691,-660.632 83.4691,-654.632 83.4691,-648.632 83.4691,-648.632 83.4691,-549.632 83.4691,-549.632 83.4691,-543.632 89.4691,-537.632 95.4691,-537.632"/>
<text text-anchor="middle" x="160.969" y="-645.432" font-family="Times,serif" font-size="14.00">WelcomeController</text>
<polyline fill="none" stroke="black" points="83.4691,-637.632 238.469,-637.632 "/>
<text text-anchor="start" x="91.4691" y="-622.432" font-family="Times,serif" font-size="14.00">action1</text>
<text text-anchor="start" x="91.4691" y="-607.432" font-family="Times,serif" font-size="14.00">index</text>
<text text-anchor="start" x="91.4691" y="-592.432" font-family="Times,serif" font-size="14.00">show</text>
<polyline fill="none" stroke="black" points="83.4691,-584.632 238.469,-584.632 "/>
<polyline fill="none" stroke="black" points="83.4691,-560.632 238.469,-560.632 "/>
<text text-anchor="start" x="91.4691" y="-545.432" font-family="Times,serif" font-size="14.00">_layout</text>
</g>
<!-- SkillsController -->
<g id="node3" class="node"><title>SkillsController</title>
<path fill="none" stroke="black" d="M1016.42,-336.603C1016.42,-336.603 1145.42,-336.603 1145.42,-336.603 1151.42,-336.603 1157.42,-342.603 1157.42,-348.603 1157.42,-348.603 1157.42,-552.603 1157.42,-552.603 1157.42,-558.603 1151.42,-564.603 1145.42,-564.603 1145.42,-564.603 1016.42,-564.603 1016.42,-564.603 1010.42,-564.603 1004.42,-558.603 1004.42,-552.603 1004.42,-552.603 1004.42,-348.603 1004.42,-348.603 1004.42,-342.603 1010.42,-336.603 1016.42,-336.603"/>
<text text-anchor="middle" x="1080.92" y="-549.403" font-family="Times,serif" font-size="14.00">SkillsController</text>
<polyline fill="none" stroke="black" points="1004.42,-541.603 1157.42,-541.603 "/>
<text text-anchor="start" x="1012.42" y="-526.403" font-family="Times,serif" font-size="14.00">create</text>
<text text-anchor="start" x="1012.42" y="-511.403" font-family="Times,serif" font-size="14.00">destroy</text>
<text text-anchor="start" x="1012.42" y="-496.403" font-family="Times,serif" font-size="14.00">edit</text>
<text text-anchor="start" x="1012.42" y="-481.403" font-family="Times,serif" font-size="14.00">index</text>
<text text-anchor="start" x="1012.42" y="-466.403" font-family="Times,serif" font-size="14.00">new</text>
<text text-anchor="start" x="1012.42" y="-451.403" font-family="Times,serif" font-size="14.00">show</text>
<text text-anchor="start" x="1012.42" y="-436.403" font-family="Times,serif" font-size="14.00">update</text>
<polyline fill="none" stroke="black" points="1004.42,-428.603 1157.42,-428.603 "/>
<polyline fill="none" stroke="black" points="1004.42,-404.603 1157.42,-404.603 "/>
<text text-anchor="start" x="1012.42" y="-389.403" font-family="Times,serif" font-size="14.00">_layout</text>
<text text-anchor="start" x="1012.42" y="-374.403" font-family="Times,serif" font-size="14.00">require_same_user</text>
<text text-anchor="start" x="1012.42" y="-359.403" font-family="Times,serif" font-size="14.00">set_skill</text>
<text text-anchor="start" x="1012.42" y="-344.403" font-family="Times,serif" font-size="14.00">skill_params</text>
</g>
<!-- RefereesController -->
<g id="node4" class="node"><title>RefereesController</title>
<path fill="none" stroke="black" d="M416.853,-0.5C416.853,-0.5 545.853,-0.5 545.853,-0.5 551.853,-0.5 557.853,-6.5 557.853,-12.5 557.853,-12.5 557.853,-216.5 557.853,-216.5 557.853,-222.5 551.853,-228.5 545.853,-228.5 545.853,-228.5 416.853,-228.5 416.853,-228.5 410.853,-228.5 404.853,-222.5 404.853,-216.5 404.853,-216.5 404.853,-12.5 404.853,-12.5 404.853,-6.5 410.853,-0.5 416.853,-0.5"/>
<text text-anchor="middle" x="481.353" y="-213.3" font-family="Times,serif" font-size="14.00">RefereesController</text>
<polyline fill="none" stroke="black" points="404.853,-205.5 557.853,-205.5 "/>
<text text-anchor="start" x="412.853" y="-190.3" font-family="Times,serif" font-size="14.00">create</text>
<text text-anchor="start" x="412.853" y="-175.3" font-family="Times,serif" font-size="14.00">destroy</text>
<text text-anchor="start" x="412.853" y="-160.3" font-family="Times,serif" font-size="14.00">edit</text>
<text text-anchor="start" x="412.853" y="-145.3" font-family="Times,serif" font-size="14.00">index</text>
<text text-anchor="start" x="412.853" y="-130.3" font-family="Times,serif" font-size="14.00">new</text>
<text text-anchor="start" x="412.853" y="-115.3" font-family="Times,serif" font-size="14.00">show</text>
<text text-anchor="start" x="412.853" y="-100.3" font-family="Times,serif" font-size="14.00">update</text>
<polyline fill="none" stroke="black" points="404.853,-92.5 557.853,-92.5 "/>
<polyline fill="none" stroke="black" points="404.853,-68.5 557.853,-68.5 "/>
<text text-anchor="start" x="412.853" y="-53.3" font-family="Times,serif" font-size="14.00">_layout</text>
<text text-anchor="start" x="412.853" y="-38.3" font-family="Times,serif" font-size="14.00">referee_params</text>
<text text-anchor="start" x="412.853" y="-23.3" font-family="Times,serif" font-size="14.00">require_same_user</text>
<text text-anchor="start" x="412.853" y="-8.3" font-family="Times,serif" font-size="14.00">set_referee</text>
</g>
<!-- PeopleController -->
<g id="node5" class="node"><title>PeopleController</title>
<path fill="none" stroke="black" d="M462.669,-677.501C462.669,-677.501 591.669,-677.501 591.669,-677.501 597.669,-677.501 603.669,-683.501 603.669,-689.501 603.669,-689.501 603.669,-893.501 603.669,-893.501 603.669,-899.501 597.669,-905.501 591.669,-905.501 591.669,-905.501 462.669,-905.501 462.669,-905.501 456.669,-905.501 450.669,-899.501 450.669,-893.501 450.669,-893.501 450.669,-689.501 450.669,-689.501 450.669,-683.501 456.669,-677.501 462.669,-677.501"/>
<text text-anchor="middle" x="527.169" y="-890.301" font-family="Times,serif" font-size="14.00">PeopleController</text>
<polyline fill="none" stroke="black" points="450.669,-882.501 603.669,-882.501 "/>
<text text-anchor="start" x="458.669" y="-867.301" font-family="Times,serif" font-size="14.00">create</text>
<text text-anchor="start" x="458.669" y="-852.301" font-family="Times,serif" font-size="14.00">destroy</text>
<text text-anchor="start" x="458.669" y="-837.301" font-family="Times,serif" font-size="14.00">edit</text>
<text text-anchor="start" x="458.669" y="-822.301" font-family="Times,serif" font-size="14.00">index</text>
<text text-anchor="start" x="458.669" y="-807.301" font-family="Times,serif" font-size="14.00">new</text>
<text text-anchor="start" x="458.669" y="-792.301" font-family="Times,serif" font-size="14.00">show</text>
<text text-anchor="start" x="458.669" y="-777.301" font-family="Times,serif" font-size="14.00">update</text>
<polyline fill="none" stroke="black" points="450.669,-769.501 603.669,-769.501 "/>
<polyline fill="none" stroke="black" points="450.669,-745.501 603.669,-745.501 "/>
<text text-anchor="start" x="458.669" y="-730.301" font-family="Times,serif" font-size="14.00">_layout</text>
<text text-anchor="start" x="458.669" y="-715.301" font-family="Times,serif" font-size="14.00">person_params</text>
<text text-anchor="start" x="458.669" y="-700.301" font-family="Times,serif" font-size="14.00">require_same_user</text>
<text text-anchor="start" x="458.669" y="-685.301" font-family="Times,serif" font-size="14.00">set_person</text>
</g>
<!-- ApplicationController -->
<g id="node6" class="node"><title>ApplicationController</title>
<path fill="none" stroke="black" d="M559.743,-414.148C559.743,-414.148 707.743,-414.148 707.743,-414.148 713.743,-414.148 719.743,-420.148 719.743,-426.148 719.743,-426.148 719.743,-510.148 719.743,-510.148 719.743,-516.148 713.743,-522.148 707.743,-522.148 707.743,-522.148 559.743,-522.148 559.743,-522.148 553.743,-522.148 547.743,-516.148 547.743,-510.148 547.743,-510.148 547.743,-426.148 547.743,-426.148 547.743,-420.148 553.743,-414.148 559.743,-414.148"/>
<text text-anchor="middle" x="633.743" y="-506.948" font-family="Times,serif" font-size="14.00">ApplicationController</text>
<polyline fill="none" stroke="black" points="547.743,-499.148 719.743,-499.148 "/>
<text text-anchor="start" x="555.743" y="-483.948" font-family="Times,serif" font-size="14.00">logged_in?</text>
<text text-anchor="start" x="555.743" y="-468.948" font-family="Times,serif" font-size="14.00">require_user</text>
<polyline fill="none" stroke="black" points="547.743,-461.148 719.743,-461.148 "/>
<polyline fill="none" stroke="black" points="547.743,-437.148 719.743,-437.148 "/>
<text text-anchor="start" x="555.743" y="-421.948" font-family="Times,serif" font-size="14.00">_layout</text>
</g>
<!-- ApplicationController&#45;&gt;WelcomeController -->
<g id="edge1" class="edge"><title>ApplicationController&#45;&gt;WelcomeController</title>
<path fill="none" stroke="black" d="M547.579,-492.02C459.422,-516.444 323.668,-554.055 238.704,-577.595"/>
</g>
<!-- ApplicationController&#45;&gt;SkillsController -->
<g id="edge2" class="edge"><title>ApplicationController&#45;&gt;SkillsController</title>
<path fill="none" stroke="black" d="M719.963,-464.765C802.32,-461.534 925.274,-456.71 1004.28,-453.61"/>
</g>
<!-- ApplicationController&#45;&gt;RefereesController -->
<g id="edge3" class="edge"><title>ApplicationController&#45;&gt;RefereesController</title>
<path fill="none" stroke="black" d="M610.432,-414.051C589.255,-364.905 557.322,-290.798 530.516,-228.593"/>
</g>
<!-- ApplicationController&#45;&gt;PeopleController -->
<g id="edge4" class="edge"><title>ApplicationController&#45;&gt;PeopleController</title>
<path fill="none" stroke="black" d="M615.905,-522.27C601.98,-564.52 582.144,-624.704 564.757,-677.458"/>
</g>
<!-- ExperiencesController -->
<g id="node7" class="node"><title>ExperiencesController</title>
<path fill="none" stroke="black" d="M92.9709,-960.427C92.9709,-960.427 247.971,-960.427 247.971,-960.427 253.971,-960.427 259.971,-966.427 259.971,-972.427 259.971,-972.427 259.971,-1176.43 259.971,-1176.43 259.971,-1182.43 253.971,-1188.43 247.971,-1188.43 247.971,-1188.43 92.9709,-1188.43 92.9709,-1188.43 86.9709,-1188.43 80.9709,-1182.43 80.9709,-1176.43 80.9709,-1176.43 80.9709,-972.427 80.9709,-972.427 80.9709,-966.427 86.9709,-960.427 92.9709,-960.427"/>
<text text-anchor="middle" x="170.471" y="-1173.23" font-family="Times,serif" font-size="14.00">ExperiencesController</text>
<polyline fill="none" stroke="black" points="80.9709,-1165.43 259.971,-1165.43 "/>
<text text-anchor="start" x="88.9709" y="-1150.23" font-family="Times,serif" font-size="14.00">create</text>
<text text-anchor="start" x="88.9709" y="-1135.23" font-family="Times,serif" font-size="14.00">destroy</text>
<text text-anchor="start" x="88.9709" y="-1120.23" font-family="Times,serif" font-size="14.00">edit</text>
<text text-anchor="start" x="88.9709" y="-1105.23" font-family="Times,serif" font-size="14.00">index</text>
<text text-anchor="start" x="88.9709" y="-1090.23" font-family="Times,serif" font-size="14.00">new</text>
<text text-anchor="start" x="88.9709" y="-1075.23" font-family="Times,serif" font-size="14.00">show</text>
<text text-anchor="start" x="88.9709" y="-1060.23" font-family="Times,serif" font-size="14.00">update</text>
<polyline fill="none" stroke="black" points="80.9709,-1052.43 259.971,-1052.43 "/>
<polyline fill="none" stroke="black" points="80.9709,-1028.43 259.971,-1028.43 "/>
<text text-anchor="start" x="88.9709" y="-1013.23" font-family="Times,serif" font-size="14.00">_layout</text>
<text text-anchor="start" x="88.9709" y="-998.227" font-family="Times,serif" font-size="14.00">experience_params</text>
<text text-anchor="start" x="88.9709" y="-983.227" font-family="Times,serif" font-size="14.00">require_same_user</text>
<text text-anchor="start" x="88.9709" y="-968.227" font-family="Times,serif" font-size="14.00">set_experience</text>
</g>
<!-- ApplicationController&#45;&gt;ExperiencesController -->
<g id="edge5" class="edge"><title>ApplicationController&#45;&gt;ExperiencesController</title>
<path fill="none" stroke="black" d="M581.135,-522.445C542.672,-563.061 490.013,-620.619 447.469,-674.301 373.74,-767.334 297.505,-878.771 243.723,-960.389"/>
</g>
<!-- EducatioalQualificationsController -->
<g id="node8" class="node"><title>EducatioalQualificationsController</title>
<path fill="none" stroke="black" d="M12,-35.8635C12,-35.8635 253,-35.8635 253,-35.8635 259,-35.8635 265,-41.8635 265,-47.8635 265,-47.8635 265,-251.864 265,-251.864 265,-257.864 259,-263.864 253,-263.864 253,-263.864 12,-263.864 12,-263.864 6,-263.864 -2.27374e-13,-257.864 -2.27374e-13,-251.864 -2.27374e-13,-251.864 -2.27374e-13,-47.8635 -2.27374e-13,-47.8635 -2.27374e-13,-41.8635 6,-35.8635 12,-35.8635"/>
<text text-anchor="middle" x="132.5" y="-248.664" font-family="Times,serif" font-size="14.00">EducatioalQualificationsController</text>
<polyline fill="none" stroke="black" points="-2.27374e-13,-240.864 265,-240.864 "/>
<text text-anchor="start" x="8" y="-225.664" font-family="Times,serif" font-size="14.00">create</text>
<text text-anchor="start" x="8" y="-210.664" font-family="Times,serif" font-size="14.00">destroy</text>
<text text-anchor="start" x="8" y="-195.664" font-family="Times,serif" font-size="14.00">edit</text>
<text text-anchor="start" x="8" y="-180.664" font-family="Times,serif" font-size="14.00">index</text>
<text text-anchor="start" x="8" y="-165.664" font-family="Times,serif" font-size="14.00">new</text>
<text text-anchor="start" x="8" y="-150.664" font-family="Times,serif" font-size="14.00">show</text>
<text text-anchor="start" x="8" y="-135.664" font-family="Times,serif" font-size="14.00">update</text>
<polyline fill="none" stroke="black" points="-2.27374e-13,-127.864 265,-127.864 "/>
<polyline fill="none" stroke="black" points="-2.27374e-13,-103.864 265,-103.864 "/>
<text text-anchor="start" x="8" y="-88.6635" font-family="Times,serif" font-size="14.00">_layout</text>
<text text-anchor="start" x="8" y="-73.6635" font-family="Times,serif" font-size="14.00">educatioal_qualification_params</text>
<text text-anchor="start" x="8" y="-58.6635" font-family="Times,serif" font-size="14.00">require_same_user</text>
<text text-anchor="start" x="8" y="-43.6635" font-family="Times,serif" font-size="14.00">set_educatioal_qualification</text>
</g>
<!-- ApplicationController&#45;&gt;EducatioalQualificationsController -->
<g id="edge6" class="edge"><title>ApplicationController&#45;&gt;EducatioalQualificationsController</title>
<path fill="none" stroke="black" d="M548.43,-413.975C470.74,-364.642 354.794,-291.018 265.04,-234.025"/>
</g>
<!-- JobpreferencesController -->
<g id="node9" class="node"><title>JobpreferencesController</title>
<path fill="none" stroke="black" d="M731.277,-0.538486C731.277,-0.538486 906.277,-0.538486 906.277,-0.538486 912.277,-0.538486 918.277,-6.53849 918.277,-12.5385 918.277,-12.5385 918.277,-216.538 918.277,-216.538 918.277,-222.538 912.277,-228.538 906.277,-228.538 906.277,-228.538 731.277,-228.538 731.277,-228.538 725.277,-228.538 719.277,-222.538 719.277,-216.538 719.277,-216.538 719.277,-12.5385 719.277,-12.5385 719.277,-6.53849 725.277,-0.538486 731.277,-0.538486"/>
<text text-anchor="middle" x="818.777" y="-213.338" font-family="Times,serif" font-size="14.00">JobpreferencesController</text>
<polyline fill="none" stroke="black" points="719.277,-205.538 918.277,-205.538 "/>
<text text-anchor="start" x="727.277" y="-190.338" font-family="Times,serif" font-size="14.00">create</text>
<text text-anchor="start" x="727.277" y="-175.338" font-family="Times,serif" font-size="14.00">destroy</text>
<text text-anchor="start" x="727.277" y="-160.338" font-family="Times,serif" font-size="14.00">edit</text>
<text text-anchor="start" x="727.277" y="-145.338" font-family="Times,serif" font-size="14.00">index</text>
<text text-anchor="start" x="727.277" y="-130.338" font-family="Times,serif" font-size="14.00">new</text>
<text text-anchor="start" x="727.277" y="-115.338" font-family="Times,serif" font-size="14.00">show</text>
<text text-anchor="start" x="727.277" y="-100.338" font-family="Times,serif" font-size="14.00">update</text>
<polyline fill="none" stroke="black" points="719.277,-92.5385 918.277,-92.5385 "/>
<polyline fill="none" stroke="black" points="719.277,-68.5385 918.277,-68.5385 "/>
<text text-anchor="start" x="727.277" y="-53.3385" font-family="Times,serif" font-size="14.00">_layout</text>
<text text-anchor="start" x="727.277" y="-38.3385" font-family="Times,serif" font-size="14.00">jobpreference_params</text>
<text text-anchor="start" x="727.277" y="-23.3385" font-family="Times,serif" font-size="14.00">require_same_user</text>
<text text-anchor="start" x="727.277" y="-8.33849" font-family="Times,serif" font-size="14.00">set_jobpreference</text>
</g>
<!-- ApplicationController&#45;&gt;JobpreferencesController -->
<g id="edge7" class="edge"><title>ApplicationController&#45;&gt;JobpreferencesController</title>
<path fill="none" stroke="black" d="M662.047,-414.057C687.762,-364.916 726.535,-290.818 759.082,-228.619"/>
</g>
<!-- DeviseController -->
<g id="node16" class="node"><title>DeviseController</title>
<path fill="none" stroke="black" d="M856.142,-584.702C856.142,-584.702 1074.14,-584.702 1074.14,-584.702 1080.14,-584.702 1086.14,-590.702 1086.14,-596.702 1086.14,-596.702 1086.14,-949.702 1086.14,-949.702 1086.14,-955.702 1080.14,-961.702 1074.14,-961.702 1074.14,-961.702 856.142,-961.702 856.142,-961.702 850.142,-961.702 844.142,-955.702 844.142,-949.702 844.142,-949.702 844.142,-596.702 844.142,-596.702 844.142,-590.702 850.142,-584.702 856.142,-584.702"/>
<text text-anchor="middle" x="965.142" y="-946.502" font-family="Times,serif" font-size="14.00">DeviseController</text>
<polyline fill="none" stroke="black" points="844.142,-938.702 1086.14,-938.702 "/>
<text text-anchor="start" x="852.142" y="-923.502" font-family="Times,serif" font-size="14.00">_prefixes</text>
<polyline fill="none" stroke="black" points="844.142,-915.702 1086.14,-915.702 "/>
<text text-anchor="start" x="852.142" y="-900.502" font-family="Times,serif" font-size="14.00">assert_is_devise_resource!</text>
<text text-anchor="start" x="852.142" y="-885.502" font-family="Times,serif" font-size="14.00">clean_up_passwords</text>
<text text-anchor="start" x="852.142" y="-870.502" font-family="Times,serif" font-size="14.00">devise_i18n_options</text>
<text text-anchor="start" x="852.142" y="-855.502" font-family="Times,serif" font-size="14.00">devise_mapping</text>
<text text-anchor="start" x="852.142" y="-840.502" font-family="Times,serif" font-size="14.00">find_message</text>
<text text-anchor="start" x="852.142" y="-825.502" font-family="Times,serif" font-size="14.00">navigational_formats</text>
<text text-anchor="start" x="852.142" y="-810.502" font-family="Times,serif" font-size="14.00">require_no_authentication</text>
<text text-anchor="start" x="852.142" y="-795.502" font-family="Times,serif" font-size="14.00">resource</text>
<text text-anchor="start" x="852.142" y="-780.502" font-family="Times,serif" font-size="14.00">resource=</text>
<text text-anchor="start" x="852.142" y="-765.502" font-family="Times,serif" font-size="14.00">resource_class</text>
<text text-anchor="start" x="852.142" y="-750.502" font-family="Times,serif" font-size="14.00">resource_name</text>
<text text-anchor="start" x="852.142" y="-735.502" font-family="Times,serif" font-size="14.00">resource_params</text>
<text text-anchor="start" x="852.142" y="-720.502" font-family="Times,serif" font-size="14.00">respond_with_navigational</text>
<text text-anchor="start" x="852.142" y="-705.502" font-family="Times,serif" font-size="14.00">scope_name</text>
<text text-anchor="start" x="852.142" y="-690.502" font-family="Times,serif" font-size="14.00">set_flash_message</text>
<text text-anchor="start" x="852.142" y="-675.502" font-family="Times,serif" font-size="14.00">set_minimum_password_length</text>
<text text-anchor="start" x="852.142" y="-660.502" font-family="Times,serif" font-size="14.00">signed_in_resource</text>
<text text-anchor="start" x="852.142" y="-645.502" font-family="Times,serif" font-size="14.00">successfully_sent?</text>
<text text-anchor="start" x="852.142" y="-630.502" font-family="Times,serif" font-size="14.00">translation_scope</text>
<text text-anchor="start" x="852.142" y="-615.502" font-family="Times,serif" font-size="14.00">unknown_action!</text>
<polyline fill="none" stroke="black" points="844.142,-607.702 1086.14,-607.702 "/>
<text text-anchor="start" x="852.142" y="-592.502" font-family="Times,serif" font-size="14.00">_layout</text>
</g>
<!-- ApplicationController&#45;&gt;DeviseController -->
<g id="edge14" class="edge"><title>ApplicationController&#45;&gt;DeviseController</title>
<path fill="none" stroke="black" d="M692.609,-522.334C734.551,-560.942 792.414,-614.205 844.037,-661.724"/>
</g>
<!-- Devise::UnlocksController -->
<g id="node10" class="node"><title>Devise::UnlocksController</title>
<path fill="none" stroke="black" d="M1001.62,-8.56004C1001.62,-8.56004 1309.62,-8.56004 1309.62,-8.56004 1315.62,-8.56004 1321.62,-14.56 1321.62,-20.56 1321.62,-20.56 1321.62,-148.56 1321.62,-148.56 1321.62,-154.56 1315.62,-160.56 1309.62,-160.56 1309.62,-160.56 1001.62,-160.56 1001.62,-160.56 995.624,-160.56 989.624,-154.56 989.624,-148.56 989.624,-148.56 989.624,-20.56 989.624,-20.56 989.624,-14.56 995.624,-8.56004 1001.62,-8.56004"/>
<text text-anchor="middle" x="1155.62" y="-145.36" font-family="Times,serif" font-size="14.00">Devise::UnlocksController</text>
<polyline fill="none" stroke="black" points="989.624,-137.56 1321.62,-137.56 "/>
<text text-anchor="start" x="997.624" y="-122.36" font-family="Times,serif" font-size="14.00">create</text>
<text text-anchor="start" x="997.624" y="-107.36" font-family="Times,serif" font-size="14.00">new</text>
<text text-anchor="start" x="997.624" y="-92.36" font-family="Times,serif" font-size="14.00">show</text>
<polyline fill="none" stroke="black" points="989.624,-84.56 1321.62,-84.56 "/>
<text text-anchor="start" x="997.624" y="-69.36" font-family="Times,serif" font-size="14.00">after_sending_unlock_instructions_path_for</text>
<text text-anchor="start" x="997.624" y="-54.36" font-family="Times,serif" font-size="14.00">after_unlock_path_for</text>
<text text-anchor="start" x="997.624" y="-39.36" font-family="Times,serif" font-size="14.00">translation_scope</text>
<polyline fill="none" stroke="black" points="989.624,-31.56 1321.62,-31.56 "/>
<text text-anchor="start" x="997.624" y="-16.36" font-family="Times,serif" font-size="14.00">_layout</text>
</g>
<!-- Devise::OmniauthCallbacksController -->
<g id="node11" class="node"><title>Devise::OmniauthCallbacksController</title>
<path fill="none" stroke="black" d="M1329.66,-561.18C1329.66,-561.18 1593.66,-561.18 1593.66,-561.18 1599.66,-561.18 1605.66,-567.18 1605.66,-573.18 1605.66,-573.18 1605.66,-701.18 1605.66,-701.18 1605.66,-707.18 1599.66,-713.18 1593.66,-713.18 1593.66,-713.18 1329.66,-713.18 1329.66,-713.18 1323.66,-713.18 1317.66,-707.18 1317.66,-701.18 1317.66,-701.18 1317.66,-573.18 1317.66,-573.18 1317.66,-567.18 1323.66,-561.18 1329.66,-561.18"/>
<text text-anchor="middle" x="1461.66" y="-697.98" font-family="Times,serif" font-size="14.00">Devise::OmniauthCallbacksController</text>
<polyline fill="none" stroke="black" points="1317.66,-690.18 1605.66,-690.18 "/>
<text text-anchor="start" x="1325.66" y="-674.98" font-family="Times,serif" font-size="14.00">failure</text>
<text text-anchor="start" x="1325.66" y="-659.98" font-family="Times,serif" font-size="14.00">passthru</text>
<polyline fill="none" stroke="black" points="1317.66,-652.18 1605.66,-652.18 "/>
<text text-anchor="start" x="1325.66" y="-636.98" font-family="Times,serif" font-size="14.00">after_omniauth_failure_path_for</text>
<text text-anchor="start" x="1325.66" y="-621.98" font-family="Times,serif" font-size="14.00">failed_strategy</text>
<text text-anchor="start" x="1325.66" y="-606.98" font-family="Times,serif" font-size="14.00">failure_message</text>
<text text-anchor="start" x="1325.66" y="-591.98" font-family="Times,serif" font-size="14.00">translation_scope</text>
<polyline fill="none" stroke="black" points="1317.66,-584.18 1605.66,-584.18 "/>
<text text-anchor="start" x="1325.66" y="-568.98" font-family="Times,serif" font-size="14.00">_layout</text>
</g>
<!-- Devise::RegistrationsController -->
<g id="node12" class="node"><title>Devise::RegistrationsController</title>
<path fill="none" stroke="black" d="M1395.42,-9.45331C1395.42,-9.45331 1617.42,-9.45331 1617.42,-9.45331 1623.42,-9.45331 1629.42,-15.4533 1629.42,-21.4533 1629.42,-21.4533 1629.42,-314.453 1629.42,-314.453 1629.42,-320.453 1623.42,-326.453 1617.42,-326.453 1617.42,-326.453 1395.42,-326.453 1395.42,-326.453 1389.42,-326.453 1383.42,-320.453 1383.42,-314.453 1383.42,-314.453 1383.42,-21.4533 1383.42,-21.4533 1383.42,-15.4533 1389.42,-9.45331 1395.42,-9.45331"/>
<text text-anchor="middle" x="1506.42" y="-311.253" font-family="Times,serif" font-size="14.00">Devise::RegistrationsController</text>
<polyline fill="none" stroke="black" points="1383.42,-303.453 1629.42,-303.453 "/>
<text text-anchor="start" x="1391.42" y="-288.253" font-family="Times,serif" font-size="14.00">cancel</text>
<text text-anchor="start" x="1391.42" y="-273.253" font-family="Times,serif" font-size="14.00">create</text>
<text text-anchor="start" x="1391.42" y="-258.253" font-family="Times,serif" font-size="14.00">destroy</text>
<text text-anchor="start" x="1391.42" y="-243.253" font-family="Times,serif" font-size="14.00">edit</text>
<text text-anchor="start" x="1391.42" y="-228.253" font-family="Times,serif" font-size="14.00">new</text>
<text text-anchor="start" x="1391.42" y="-213.253" font-family="Times,serif" font-size="14.00">update</text>
<polyline fill="none" stroke="black" points="1383.42,-205.453 1629.42,-205.453 "/>
<text text-anchor="start" x="1391.42" y="-190.253" font-family="Times,serif" font-size="14.00">account_update_params</text>
<text text-anchor="start" x="1391.42" y="-175.253" font-family="Times,serif" font-size="14.00">after_inactive_sign_up_path_for</text>
<text text-anchor="start" x="1391.42" y="-160.253" font-family="Times,serif" font-size="14.00">after_sign_up_path_for</text>
<text text-anchor="start" x="1391.42" y="-145.253" font-family="Times,serif" font-size="14.00">after_update_path_for</text>
<text text-anchor="start" x="1391.42" y="-130.253" font-family="Times,serif" font-size="14.00">authenticate_scope!</text>
<text text-anchor="start" x="1391.42" y="-115.253" font-family="Times,serif" font-size="14.00">build_resource</text>
<text text-anchor="start" x="1391.42" y="-100.253" font-family="Times,serif" font-size="14.00">sign_up</text>
<text text-anchor="start" x="1391.42" y="-85.2533" font-family="Times,serif" font-size="14.00">sign_up_params</text>
<text text-anchor="start" x="1391.42" y="-70.2533" font-family="Times,serif" font-size="14.00">translation_scope</text>
<text text-anchor="start" x="1391.42" y="-55.2533" font-family="Times,serif" font-size="14.00">update_needs_confirmation?</text>
<text text-anchor="start" x="1391.42" y="-40.2533" font-family="Times,serif" font-size="14.00">update_resource</text>
<polyline fill="none" stroke="black" points="1383.42,-32.4533 1629.42,-32.4533 "/>
<text text-anchor="start" x="1391.42" y="-17.2533" font-family="Times,serif" font-size="14.00">_layout</text>
</g>
<!-- Devise::SessionsController -->
<g id="node13" class="node"><title>Devise::SessionsController</title>
<path fill="none" stroke="black" d="M546.774,-1020.86C546.774,-1020.86 731.774,-1020.86 731.774,-1020.86 737.774,-1020.86 743.774,-1026.86 743.774,-1032.86 743.774,-1032.86 743.774,-1220.86 743.774,-1220.86 743.774,-1226.86 737.774,-1232.86 731.774,-1232.86 731.774,-1232.86 546.774,-1232.86 546.774,-1232.86 540.774,-1232.86 534.774,-1226.86 534.774,-1220.86 534.774,-1220.86 534.774,-1032.86 534.774,-1032.86 534.774,-1026.86 540.774,-1020.86 546.774,-1020.86"/>
<text text-anchor="middle" x="639.274" y="-1217.66" font-family="Times,serif" font-size="14.00">Devise::SessionsController</text>
<polyline fill="none" stroke="black" points="534.774,-1209.86 743.774,-1209.86 "/>
<text text-anchor="start" x="542.774" y="-1194.66" font-family="Times,serif" font-size="14.00">create</text>
<text text-anchor="start" x="542.774" y="-1179.66" font-family="Times,serif" font-size="14.00">destroy</text>
<text text-anchor="start" x="542.774" y="-1164.66" font-family="Times,serif" font-size="14.00">new</text>
<polyline fill="none" stroke="black" points="534.774,-1156.86 743.774,-1156.86 "/>
<text text-anchor="start" x="542.774" y="-1141.66" font-family="Times,serif" font-size="14.00">auth_options</text>
<text text-anchor="start" x="542.774" y="-1126.66" font-family="Times,serif" font-size="14.00">serialize_options</text>
<text text-anchor="start" x="542.774" y="-1111.66" font-family="Times,serif" font-size="14.00">sign_in_params</text>
<text text-anchor="start" x="542.774" y="-1096.66" font-family="Times,serif" font-size="14.00">translation_scope</text>
<polyline fill="none" stroke="black" points="534.774,-1088.86 743.774,-1088.86 "/>
<text text-anchor="start" x="542.774" y="-1073.66" font-family="Times,serif" font-size="14.00">_layout</text>
<text text-anchor="start" x="542.774" y="-1058.66" font-family="Times,serif" font-size="14.00">all_signed_out?</text>
<text text-anchor="start" x="542.774" y="-1043.66" font-family="Times,serif" font-size="14.00">respond_to_on_destroy</text>
<text text-anchor="start" x="542.774" y="-1028.66" font-family="Times,serif" font-size="14.00">verify_signed_out_user</text>
</g>
<!-- Devise::PasswordsController -->
<g id="node14" class="node"><title>Devise::PasswordsController</title>
<path fill="none" stroke="black" d="M1289.69,-972.523C1289.69,-972.523 1661.69,-972.523 1661.69,-972.523 1667.69,-972.523 1673.69,-978.523 1673.69,-984.523 1673.69,-984.523 1673.69,-1157.52 1673.69,-1157.52 1673.69,-1163.52 1667.69,-1169.52 1661.69,-1169.52 1661.69,-1169.52 1289.69,-1169.52 1289.69,-1169.52 1283.69,-1169.52 1277.69,-1163.52 1277.69,-1157.52 1277.69,-1157.52 1277.69,-984.523 1277.69,-984.523 1277.69,-978.523 1283.69,-972.523 1289.69,-972.523"/>
<text text-anchor="middle" x="1475.69" y="-1154.32" font-family="Times,serif" font-size="14.00">Devise::PasswordsController</text>
<polyline fill="none" stroke="black" points="1277.69,-1146.52 1673.69,-1146.52 "/>
<text text-anchor="start" x="1285.69" y="-1131.32" font-family="Times,serif" font-size="14.00">create</text>
<text text-anchor="start" x="1285.69" y="-1116.32" font-family="Times,serif" font-size="14.00">edit</text>
<text text-anchor="start" x="1285.69" y="-1101.32" font-family="Times,serif" font-size="14.00">new</text>
<text text-anchor="start" x="1285.69" y="-1086.32" font-family="Times,serif" font-size="14.00">update</text>
<polyline fill="none" stroke="black" points="1277.69,-1078.52 1673.69,-1078.52 "/>
<text text-anchor="start" x="1285.69" y="-1063.32" font-family="Times,serif" font-size="14.00">after_resetting_password_path_for</text>
<text text-anchor="start" x="1285.69" y="-1048.32" font-family="Times,serif" font-size="14.00">after_sending_reset_password_instructions_path_for</text>
<text text-anchor="start" x="1285.69" y="-1033.32" font-family="Times,serif" font-size="14.00">assert_reset_token_passed</text>
<text text-anchor="start" x="1285.69" y="-1018.32" font-family="Times,serif" font-size="14.00">translation_scope</text>
<text text-anchor="start" x="1285.69" y="-1003.32" font-family="Times,serif" font-size="14.00">unlockable?</text>
<polyline fill="none" stroke="black" points="1277.69,-995.523 1673.69,-995.523 "/>
<text text-anchor="start" x="1285.69" y="-980.323" font-family="Times,serif" font-size="14.00">_layout</text>
</g>
<!-- Devise::ConfirmationsController -->
<g id="node15" class="node"><title>Devise::ConfirmationsController</title>
<path fill="none" stroke="black" d="M884.008,-1036.13C884.008,-1036.13 1249.01,-1036.13 1249.01,-1036.13 1255.01,-1036.13 1261.01,-1042.13 1261.01,-1048.13 1261.01,-1048.13 1261.01,-1176.13 1261.01,-1176.13 1261.01,-1182.13 1255.01,-1188.13 1249.01,-1188.13 1249.01,-1188.13 884.008,-1188.13 884.008,-1188.13 878.008,-1188.13 872.008,-1182.13 872.008,-1176.13 872.008,-1176.13 872.008,-1048.13 872.008,-1048.13 872.008,-1042.13 878.008,-1036.13 884.008,-1036.13"/>
<text text-anchor="middle" x="1066.51" y="-1172.93" font-family="Times,serif" font-size="14.00">Devise::ConfirmationsController</text>
<polyline fill="none" stroke="black" points="872.008,-1165.13 1261.01,-1165.13 "/>
<text text-anchor="start" x="880.008" y="-1149.93" font-family="Times,serif" font-size="14.00">create</text>
<text text-anchor="start" x="880.008" y="-1134.93" font-family="Times,serif" font-size="14.00">new</text>
<text text-anchor="start" x="880.008" y="-1119.93" font-family="Times,serif" font-size="14.00">show</text>
<polyline fill="none" stroke="black" points="872.008,-1112.13 1261.01,-1112.13 "/>
<text text-anchor="start" x="880.008" y="-1096.93" font-family="Times,serif" font-size="14.00">after_confirmation_path_for</text>
<text text-anchor="start" x="880.008" y="-1081.93" font-family="Times,serif" font-size="14.00">after_resending_confirmation_instructions_path_for</text>
<text text-anchor="start" x="880.008" y="-1066.93" font-family="Times,serif" font-size="14.00">translation_scope</text>
<polyline fill="none" stroke="black" points="872.008,-1059.13 1261.01,-1059.13 "/>
<text text-anchor="start" x="880.008" y="-1043.93" font-family="Times,serif" font-size="14.00">_layout</text>
</g>
<!-- DeviseController&#45;&gt;Devise::UnlocksController -->
<g id="edge8" class="edge"><title>DeviseController&#45;&gt;Devise::UnlocksController</title>
<path fill="none" stroke="black" d="M961.236,-584.502C964.519,-505.258 974.91,-413.161 1001.22,-333.403 1021.88,-270.754 1061.26,-207.687 1095.08,-160.72"/>
</g>
<!-- DeviseController&#45;&gt;Devise::OmniauthCallbacksController -->
<g id="edge9" class="edge"><title>DeviseController&#45;&gt;Devise::OmniauthCallbacksController</title>
<path fill="none" stroke="black" d="M1086.29,-740.014C1156.04,-720.904 1244.14,-696.769 1317.46,-676.685"/>
</g>
<!-- DeviseController&#45;&gt;Devise::RegistrationsController -->
<g id="edge10" class="edge"><title>DeviseController&#45;&gt;Devise::RegistrationsController</title>
<path fill="none" stroke="black" d="M1086.28,-647.813C1111.1,-621.591 1136.88,-593.961 1160.62,-567.803 1235.85,-484.88 1317.92,-390.183 1383.21,-313.766"/>
</g>
<!-- DeviseController&#45;&gt;Devise::SessionsController -->
<g id="edge11" class="edge"><title>DeviseController&#45;&gt;Devise::SessionsController</title>
<path fill="none" stroke="black" d="M844.032,-904.64C808.729,-942.954 770.616,-984.318 736.954,-1020.85"/>
</g>
<!-- DeviseController&#45;&gt;Devise::PasswordsController -->
<g id="edge12" class="edge"><title>DeviseController&#45;&gt;Devise::PasswordsController</title>
<path fill="none" stroke="black" d="M1086.46,-843.97C1152.22,-882.333 1234.54,-930.351 1306.51,-972.335"/>
</g>
<!-- DeviseController&#45;&gt;Devise::ConfirmationsController -->
<g id="edge13" class="edge"><title>DeviseController&#45;&gt;Devise::ConfirmationsController</title>
<path fill="none" stroke="black" d="M1021.6,-961.99C1029.42,-988.133 1037.06,-1013.66 1043.75,-1036.02"/>
</g>
</g>
</svg>
