<?xml version="1.0" encoding="UTF-8" standalone="no"?>
<!DOCTYPE svg PUBLIC "-//W3C//DTD SVG 1.1//EN"
 "http://www.w3.org/Graphics/SVG/1.1/DTD/svg11.dtd">
<!-- Generated by graphviz version 2.36.0 (20140111.2315)
 -->
<!-- Title: models_diagram Pages: 1 -->
<svg width="805pt" height="302pt"
 viewBox="0.00 0.00 805.00 302.00" xmlns="http://www.w3.org/2000/svg" xmlns:xlink="http://www.w3.org/1999/xlink">
<g id="graph0" class="graph" transform="scale(1 1) rotate(0) translate(4 298)">
<title>models_diagram</title>
<polygon fill="none" stroke="none" points="-4,4 -4,-298 801,-298 801,4 -4,4"/>
<!-- _diagram_info -->
<g id="node1" class="node"><title>_diagram_info</title>
<text text-anchor="start" x="7.5" y="-279.6" font-family="Times,serif" font-size="13.00">Models diagram</text>
<text text-anchor="start" x="7.5" y="-265.6" font-family="Times,serif" font-size="13.00">Date: Apr 12 2016 &#45; 10:41</text>
<text text-anchor="start" x="7.5" y="-251.6" font-family="Times,serif" font-size="13.00">Migration version: 20160407210919</text>
<text text-anchor="start" x="7.5" y="-237.6" font-family="Times,serif" font-size="13.00">Generated by RailRoady 1.4.2</text>
<text text-anchor="start" x="7.5" y="-223.6" font-family="Times,serif" font-size="13.00">http://railroady.prestonlee.com</text>
</g>
<!-- User -->
<g id="node2" class="node"><title>User</title>
<ellipse fill="none" stroke="black" cx="377" cy="-162" rx="32.2457" ry="18"/>
<text text-anchor="middle" x="377" y="-158.3" font-family="Times,serif" font-size="14.00">User</text>
</g>
<!-- Skill -->
<g id="node3" class="node"><title>Skill</title>
<ellipse fill="none" stroke="black" cx="338" cy="-18" rx="31.2965" ry="18"/>
<text text-anchor="middle" x="338" y="-14.3" font-family="Times,serif" font-size="14.00">Skill</text>
</g>
<!-- User&#45;&gt;Skill -->
<g id="edge5" class="edge"><title>User&#45;&gt;Skill</title>
<path fill="none" stroke="#796125" d="M374.95,-135.662C373.025,-117.613 369.441,-92.942 363,-72 360.132,-62.674 355.904,-52.8971 351.737,-44.316"/>
<ellipse fill="none" stroke="#796125" cx="375.374" cy="-139.964" rx="4" ry="4"/>
<polygon fill="#796125" stroke="#796125" points="351.651,-44.1459 351.151,-33.1915 349.393,-39.6848 347.135,-35.2236 347.135,-35.2236 347.135,-35.2236 349.393,-39.6848 343.12,-37.2558 351.651,-44.1459 351.651,-44.1459"/>
</g>
<!-- Jobpreference -->
<g id="node4" class="node"><title>Jobpreference</title>
<ellipse fill="none" stroke="black" cx="721" cy="-18" rx="76.5394" ry="18"/>
<text text-anchor="middle" x="721" y="-14.3" font-family="Times,serif" font-size="14.00">Jobpreference</text>
</g>
<!-- User&#45;&gt;Jobpreference -->
<g id="edge6" class="edge"><title>User&#45;&gt;Jobpreference</title>
<path fill="none" stroke="#554888" d="M409.77,-147.473C471.447,-122.013 604.894,-66.9274 675.331,-37.8516"/>
<ellipse fill="none" stroke="#554888" cx="405.993" cy="-149.032" rx="4.00002" ry="4.00002"/>
<polygon fill="#554888" stroke="#554888" points="675.595,-37.743 686.555,-38.0869 680.216,-35.8351 684.838,-33.9273 684.838,-33.9273 684.838,-33.9273 680.216,-35.8351 683.121,-29.7678 675.595,-37.743 675.595,-37.743"/>
</g>
<!-- Experience -->
<g id="node5" class="node"><title>Experience</title>
<ellipse fill="none" stroke="black" cx="114" cy="-18" rx="63.5411" ry="18"/>
<text text-anchor="middle" x="114" y="-14.3" font-family="Times,serif" font-size="14.00">Experience</text>
</g>
<!-- User&#45;&gt;Experience -->
<g id="edge3" class="edge"><title>User&#45;&gt;Experience</title>
<path fill="none" stroke="#874dbf" d="M341.625,-149.827C313.558,-140.35 273.739,-125.523 241,-108 204.958,-88.7094 166.994,-60.9934 142.066,-41.6323"/>
<ellipse fill="none" stroke="#874dbf" cx="345.78" cy="-151.211" rx="4.00001" ry="4.00001"/>
<polygon fill="#874dbf" stroke="#874dbf" points="142.003,-41.5824 136.911,-31.8701 138.068,-38.4967 134.134,-35.411 134.134,-35.411 134.134,-35.411 138.068,-38.4967 131.357,-38.9518 142.003,-41.5824 142.003,-41.5824"/>
</g>
<!-- Person -->
<g id="node6" class="node"><title>Person</title>
<ellipse fill="none" stroke="black" cx="312" cy="-90" rx="42.3701" ry="18"/>
<text text-anchor="middle" x="312" y="-86.3" font-family="Times,serif" font-size="14.00">Person</text>
</g>
<!-- User&#45;&gt;Person -->
<g id="edge1" class="edge"><title>User&#45;&gt;Person</title>
<path fill="none" stroke="#c6aac4" d="M357.396,-139.888C349.998,-131.921 341.536,-122.808 333.938,-114.626"/>
<ellipse fill="none" stroke="#c6aac4" cx="360.174" cy="-142.88" rx="4.00002" ry="4.00002"/>
<polygon fill="#c6aac4" stroke="#c6aac4" points="333.786,-114.462 330.279,-104.072 330.383,-110.798 326.981,-107.134 326.981,-107.134 326.981,-107.134 330.383,-110.798 323.684,-110.196 333.786,-114.462 333.786,-114.462"/>
</g>
<!-- EducatioalQualification -->
<g id="node7" class="node"><title>EducatioalQualification</title>
<ellipse fill="none" stroke="black" cx="507" cy="-18" rx="119.384" ry="18"/>
<text text-anchor="middle" x="507" y="-14.3" font-family="Times,serif" font-size="14.00">EducatioalQualification</text>
</g>
<!-- User&#45;&gt;EducatioalQualification -->
<g id="edge2" class="edge"><title>User&#45;&gt;EducatioalQualification</title>
<path fill="none" stroke="#d77a5b" d="M396.685,-139.497C420.234,-113.775 459.574,-70.8036 484.359,-43.7309"/>
<ellipse fill="none" stroke="#d77a5b" cx="393.861" cy="-142.583" rx="4.00002" ry="4.00002"/>
<polygon fill="#d77a5b" stroke="#d77a5b" points="484.492,-43.5861 494.563,-39.2489 487.868,-39.8982 491.244,-36.2103 491.244,-36.2103 491.244,-36.2103 487.868,-39.8982 487.925,-33.1716 484.492,-43.5861 484.492,-43.5861"/>
</g>
<!-- Referee -->
<g id="node8" class="node"><title>Referee</title>
<ellipse fill="none" stroke="black" cx="242" cy="-18" rx="46.1964" ry="18"/>
<text text-anchor="middle" x="242" y="-14.3" font-family="Times,serif" font-size="14.00">Referee</text>
</g>
<!-- User&#45;&gt;Referee -->
<g id="edge4" class="edge"><title>User&#45;&gt;Referee</title>
<path fill="none" stroke="#cae659" d="M339.092,-153.109C313.282,-145.763 280.403,-132.178 261,-108 247.131,-90.7176 242.755,-65.658 241.634,-46.5305"/>
<ellipse fill="none" stroke="#cae659" cx="342.989" cy="-154.156" rx="4.00001" ry="4.00001"/>
<polygon fill="#cae659" stroke="#cae659" points="241.628,-46.3247 245.802,-36.1845 241.466,-41.3273 241.305,-36.3299 241.305,-36.3299 241.305,-36.3299 241.466,-41.3273 236.807,-36.4753 241.628,-46.3247 241.628,-46.3247"/>
</g>
<!-- Person&#45;&gt;Skill -->
<g id="edge12" class="edge"><title>Person&#45;&gt;Skill</title>
<path fill="none" stroke="#64aee3" d="M321.126,-64.4306C323.435,-58.214 325.923,-51.5142 328.261,-45.2195"/>
<ellipse fill="none" stroke="#64aee3" cx="319.687" cy="-68.3052" rx="4.00001" ry="4.00001"/>
<polygon fill="#64aee3" stroke="#64aee3" points="328.282,-45.1633 335.983,-37.3559 330.023,-40.4761 331.764,-35.789 331.764,-35.789 331.764,-35.789 330.023,-40.4761 327.546,-34.2221 328.282,-45.1633 328.282,-45.1633"/>
</g>
<!-- Person&#45;&gt;Jobpreference -->
<g id="edge15" class="edge"><title>Person&#45;&gt;Jobpreference</title>
<path fill="none" stroke="#2fd058" d="M359.008,-81.7774C421.956,-71.9937 537.065,-53.7098 635,-36 641.541,-34.8173 648.352,-33.5433 655.152,-32.2437"/>
<ellipse fill="none" stroke="#2fd058" cx="354.804" cy="-82.4297" rx="4.00001" ry="4.00001"/>
<polygon fill="#2fd058" stroke="#2fd058" points="655.255,-32.224 665.927,-34.7474 660.165,-31.2764 665.074,-30.3289 665.074,-30.3289 665.074,-30.3289 660.165,-31.2764 664.221,-25.9105 655.255,-32.224 655.255,-32.224"/>
</g>
<!-- Person&#45;&gt;Experience -->
<g id="edge13" class="edge"><title>Person&#45;&gt;Experience</title>
<path fill="none" stroke="#7c650d" d="M272.961,-75.1985C241.05,-63.9166 195.803,-47.9202 161.738,-35.8771"/>
<ellipse fill="none" stroke="#7c650d" cx="276.855" cy="-76.575" rx="4.00001" ry="4.00001"/>
<polygon fill="#7c650d" stroke="#7c650d" points="161.429,-35.7678 153.501,-28.1919 156.715,-34.1012 152.001,-32.4346 152.001,-32.4346 152.001,-32.4346 156.715,-34.1012 150.501,-36.6772 161.429,-35.7678 161.429,-35.7678"/>
</g>
<!-- Person&#45;&gt;EducatioalQualification -->
<g id="edge11" class="edge"><title>Person&#45;&gt;EducatioalQualification</title>
<path fill="none" stroke="#7b8b92" d="M351.248,-74.9111C380.563,-64.3875 420.973,-49.8816 453.285,-38.2825"/>
<ellipse fill="none" stroke="#7b8b92" cx="347.095" cy="-76.4018" rx="4.00001" ry="4.00001"/>
<polygon fill="#7b8b92" stroke="#7b8b92" points="453.619,-38.1624 464.552,-39.0191 458.325,-36.473 463.031,-34.7837 463.031,-34.7837 463.031,-34.7837 458.325,-36.473 461.511,-30.5483 453.619,-38.1624 453.619,-38.1624"/>
</g>
<!-- Person&#45;&gt;Referee -->
<g id="edge14" class="edge"><title>Person&#45;&gt;Referee</title>
<path fill="none" stroke="#2a9c43" d="M290.281,-67.2809C282.539,-59.5393 273.78,-50.7799 265.868,-42.8677"/>
<ellipse fill="none" stroke="#2a9c43" cx="293.287" cy="-70.2875" rx="4.00002" ry="4.00002"/>
<polygon fill="#2a9c43" stroke="#2a9c43" points="265.378,-42.3781 261.489,-32.125 261.843,-38.8425 258.307,-35.307 258.307,-35.307 258.307,-35.307 261.843,-38.8425 255.125,-38.489 265.378,-42.3781 265.378,-42.3781"/>
</g>
<!-- ActiveRecord::Base -->
<g id="node9" class="node"><title>ActiveRecord::Base</title>
<ellipse fill="none" stroke="black" cx="377" cy="-255" rx="102.061" ry="18"/>
<text text-anchor="middle" x="377" y="-251.3" font-family="Times,serif" font-size="14.00">ActiveRecord::Base</text>
</g>
<!-- ActiveRecord::Base&#45;&gt;User -->
<g id="edge7" class="edge"><title>ActiveRecord::Base&#45;&gt;User</title>
<path fill="none" stroke="black" d="M377,-236.884C377,-220.614 377,-196.284 377,-180.04"/>
</g>
<!-- ActiveRecord::Base&#45;&gt;Skill -->
<g id="edge8" class="edge"><title>ActiveRecord::Base&#45;&gt;Skill</title>
<path fill="none" stroke="black" d="M389.63,-237.128C399.532,-222.78 412.523,-201.188 418,-180 422.005,-164.509 421.847,-159.531 418,-144 406.911,-99.233 372.217,-55.9565 352.349,-33.973"/>
</g>
<!-- ActiveRecord::Base&#45;&gt;Jobpreference -->
<g id="edge9" class="edge"><title>ActiveRecord::Base&#45;&gt;Jobpreference</title>
<path fill="none" stroke="black" d="M401.189,-237.475C464.504,-194.223 634.527,-78.0733 697.294,-35.1945"/>
</g>
<!-- ActiveRecord::Base&#45;&gt;Experience -->
<g id="edge10" class="edge"><title>ActiveRecord::Base&#45;&gt;Experience</title>
<path fill="none" stroke="black" d="M344.949,-237.837C319.503,-224.221 283.721,-203.276 256,-180 201.484,-134.225 149.271,-67.1335 126.271,-36.0144"/>
</g>
<!-- ActiveRecord::Base&#45;&gt;Person -->
<g id="edge16" class="edge"><title>ActiveRecord::Base&#45;&gt;Person</title>
<path fill="none" stroke="black" d="M365.985,-236.949C356.923,-222.317 344.267,-200.421 336,-180 326.211,-155.821 319.158,-126.351 315.325,-108.13"/>
</g>
<!-- ActiveRecord::Base&#45;&gt;EducatioalQualification -->
<g id="edge17" class="edge"><title>ActiveRecord::Base&#45;&gt;EducatioalQualification</title>
<path fill="none" stroke="black" d="M391.469,-237.111C403.496,-222.578 420.589,-200.737 433,-180 462.859,-130.112 488.963,-66.132 500.583,-36.0599"/>
</g>
<!-- ActiveRecord::Base&#45;&gt;Referee -->
<g id="edge18" class="edge"><title>ActiveRecord::Base&#45;&gt;Referee</title>
<path fill="none" stroke="black" d="M352.831,-237.374C320.192,-213.278 263.52,-165.215 241,-108 231.719,-84.419 234.739,-54.5255 238.109,-36.0851"/>
</g>
</g>
</svg>
