<?xml version="1.0" encoding="UTF-8" standalone="no"?>
<!DOCTYPE svg PUBLIC "-//W3C//DTD SVG 1.1//EN"
 "http://www.w3.org/Graphics/SVG/1.1/DTD/svg11.dtd">
<!-- Generated by graphviz version 2.36.0 (20140111.2315)
 -->
<!-- Title: models_diagram Pages: 1 -->
<svg width="1510pt" height="1462pt"
 viewBox="0.00 0.00 1510.00 1462.00" xmlns="http://www.w3.org/2000/svg" xmlns:xlink="http://www.w3.org/1999/xlink">
<g id="graph0" class="graph" transform="scale(1 1) rotate(0) translate(4 1458)">
<title>models_diagram</title>
<polygon fill="none" stroke="none" points="-4,4 -4,-1458 1506,-1458 1506,4 -4,4"/>
<!-- _diagram_info -->
<g id="node1" class="node"><title>_diagram_info</title>
<text text-anchor="start" x="494.5" y="-1439.6" font-family="Times,serif" font-size="13.00">Models diagram</text>
<text text-anchor="start" x="494.5" y="-1425.6" font-family="Times,serif" font-size="13.00">Date: Apr 12 2016 &#45; 10:41</text>
<text text-anchor="start" x="494.5" y="-1411.6" font-family="Times,serif" font-size="13.00">Migration version: 20160407210919</text>
<text text-anchor="start" x="494.5" y="-1397.6" font-family="Times,serif" font-size="13.00">Generated by RailRoady 1.4.2</text>
<text text-anchor="start" x="494.5" y="-1383.6" font-family="Times,serif" font-size="13.00">http://railroady.prestonlee.com</text>
</g>
<!-- User -->
<g id="node2" class="node"><title>User</title>
<path fill="none" stroke="black" d="M745,-1023C745,-1023 983,-1023 983,-1023 989,-1023 995,-1029 995,-1035 995,-1035 995,-1327 995,-1327 995,-1333 989,-1339 983,-1339 983,-1339 745,-1339 745,-1339 739,-1339 733,-1333 733,-1327 733,-1327 733,-1035 733,-1035 733,-1029 739,-1023 745,-1023"/>
<text text-anchor="middle" x="864" y="-1323.8" font-family="Times,serif" font-size="14.00">User</text>
<polyline fill="none" stroke="black" points="733,-1316 995,-1316 "/>
<text text-anchor="start" x="741" y="-1300.8" font-family="Times,serif" font-size="14.00">id :INTEGER</text>
<text text-anchor="start" x="741" y="-1285.8" font-family="Times,serif" font-size="14.00">email :varchar</text>
<text text-anchor="start" x="741" y="-1270.8" font-family="Times,serif" font-size="14.00">encrypted_password :varchar</text>
<text text-anchor="start" x="741" y="-1255.8" font-family="Times,serif" font-size="14.00">reset_password_token :varchar</text>
<text text-anchor="start" x="741" y="-1240.8" font-family="Times,serif" font-size="14.00">reset_password_sent_at :datetime</text>
<text text-anchor="start" x="741" y="-1225.8" font-family="Times,serif" font-size="14.00">remember_created_at :datetime</text>
<text text-anchor="start" x="741" y="-1210.8" font-family="Times,serif" font-size="14.00">sign_in_count :integer</text>
<text text-anchor="start" x="741" y="-1195.8" font-family="Times,serif" font-size="14.00">current_sign_in_at :datetime</text>
<text text-anchor="start" x="741" y="-1180.8" font-family="Times,serif" font-size="14.00">last_sign_in_at :datetime</text>
<text text-anchor="start" x="741" y="-1165.8" font-family="Times,serif" font-size="14.00">current_sign_in_ip :varchar</text>
<text text-anchor="start" x="741" y="-1150.8" font-family="Times,serif" font-size="14.00">last_sign_in_ip :varchar</text>
<text text-anchor="start" x="741" y="-1135.8" font-family="Times,serif" font-size="14.00">confirmation_token :varchar</text>
<text text-anchor="start" x="741" y="-1120.8" font-family="Times,serif" font-size="14.00">confirmed_at :datetime</text>
<text text-anchor="start" x="741" y="-1105.8" font-family="Times,serif" font-size="14.00">confirmation_sent_at :datetime</text>
<text text-anchor="start" x="741" y="-1090.8" font-family="Times,serif" font-size="14.00">unconfirmed_email :varchar</text>
<text text-anchor="start" x="741" y="-1075.8" font-family="Times,serif" font-size="14.00">created_at :datetime</text>
<text text-anchor="start" x="741" y="-1060.8" font-family="Times,serif" font-size="14.00">updated_at :datetime</text>
<text text-anchor="start" x="741" y="-1045.8" font-family="Times,serif" font-size="14.00">admin :boolean</text>
<text text-anchor="start" x="741" y="-1030.8" font-family="Times,serif" font-size="14.00">employee :boolean</text>
</g>
<!-- Skill -->
<g id="node3" class="node"><title>Skill</title>
<path fill="none" stroke="black" d="M710,-46C710,-46 880,-46 880,-46 886,-46 892,-52 892,-58 892,-58 892,-260 892,-260 892,-266 886,-272 880,-272 880,-272 710,-272 710,-272 704,-272 698,-266 698,-260 698,-260 698,-58 698,-58 698,-52 704,-46 710,-46"/>
<text text-anchor="middle" x="795" y="-256.8" font-family="Times,serif" font-size="14.00">Skill</text>
<polyline fill="none" stroke="black" points="698,-249 892,-249 "/>
<text text-anchor="start" x="706" y="-233.8" font-family="Times,serif" font-size="14.00">id :INTEGER</text>
<text text-anchor="start" x="706" y="-218.8" font-family="Times,serif" font-size="14.00">idSkills :integer</text>
<text text-anchor="start" x="706" y="-203.8" font-family="Times,serif" font-size="14.00">Person_idUser :integer</text>
<text text-anchor="start" x="706" y="-188.8" font-family="Times,serif" font-size="14.00">skillName :varchar(100)</text>
<text text-anchor="start" x="706" y="-173.8" font-family="Times,serif" font-size="14.00">skillLevel :varchar</text>
<text text-anchor="start" x="706" y="-158.8" font-family="Times,serif" font-size="14.00">verified :integer(1)</text>
<text text-anchor="start" x="706" y="-143.8" font-family="Times,serif" font-size="14.00">howVerified :varchar(45)</text>
<text text-anchor="start" x="706" y="-128.8" font-family="Times,serif" font-size="14.00">user_id :integer</text>
<text text-anchor="start" x="706" y="-113.8" font-family="Times,serif" font-size="14.00">created_at :datetime</text>
<text text-anchor="start" x="706" y="-98.8" font-family="Times,serif" font-size="14.00">updated_at :datetime</text>
<text text-anchor="start" x="706" y="-83.8" font-family="Times,serif" font-size="14.00">skillType :varchar</text>
<text text-anchor="start" x="706" y="-68.8" font-family="Times,serif" font-size="14.00">people_id :integer</text>
<text text-anchor="start" x="706" y="-53.8" font-family="Times,serif" font-size="14.00">person_id :integer</text>
</g>
<!-- User&#45;&gt;Skill -->
<g id="edge5" class="edge"><title>User&#45;&gt;Skill</title>
<path fill="none" stroke="#74d5a6" d="M921.355,-1015.14C923.566,-1005.35 925.482,-995.591 927,-986 948.959,-847.283 970.21,-487.632 927,-354 920.928,-335.221 912.277,-334.197 901,-318 892.562,-305.881 883.838,-293.176 875.186,-280.459"/>
<ellipse fill="none" stroke="#74d5a6" cx="920.431" cy="-1019.09" rx="4.00001" ry="4.00001"/>
<polygon fill="#74d5a6" stroke="#74d5a6" points="875.132,-280.38 873.237,-269.579 872.323,-276.243 869.514,-272.107 869.514,-272.107 869.514,-272.107 872.323,-276.243 865.792,-274.635 875.132,-280.38 875.132,-280.38"/>
</g>
<!-- Jobpreference -->
<g id="node4" class="node"><title>Jobpreference</title>
<path fill="none" stroke="black" d="M1302,-61C1302,-61 1490,-61 1490,-61 1496,-61 1502,-67 1502,-73 1502,-73 1502,-245 1502,-245 1502,-251 1496,-257 1490,-257 1490,-257 1302,-257 1302,-257 1296,-257 1290,-251 1290,-245 1290,-245 1290,-73 1290,-73 1290,-67 1296,-61 1302,-61"/>
<text text-anchor="middle" x="1396" y="-241.8" font-family="Times,serif" font-size="14.00">Jobpreference</text>
<polyline fill="none" stroke="black" points="1290,-234 1502,-234 "/>
<text text-anchor="start" x="1298" y="-218.8" font-family="Times,serif" font-size="14.00">id :INTEGER</text>
<text text-anchor="start" x="1298" y="-203.8" font-family="Times,serif" font-size="14.00">jobtitle :varchar</text>
<text text-anchor="start" x="1298" y="-188.8" font-family="Times,serif" font-size="14.00">job_title :varchar</text>
<text text-anchor="start" x="1298" y="-173.8" font-family="Times,serif" font-size="14.00">job_role :varchar</text>
<text text-anchor="start" x="1298" y="-158.8" font-family="Times,serif" font-size="14.00">role_type :varchar</text>
<text text-anchor="start" x="1298" y="-143.8" font-family="Times,serif" font-size="14.00">location :varchar</text>
<text text-anchor="start" x="1298" y="-128.8" font-family="Times,serif" font-size="14.00">happy_to_relocate :varchar</text>
<text text-anchor="start" x="1298" y="-113.8" font-family="Times,serif" font-size="14.00">user_id :varchar</text>
<text text-anchor="start" x="1298" y="-98.8" font-family="Times,serif" font-size="14.00">created_at :datetime</text>
<text text-anchor="start" x="1298" y="-83.8" font-family="Times,serif" font-size="14.00">updated_at :datetime</text>
<text text-anchor="start" x="1298" y="-68.8" font-family="Times,serif" font-size="14.00">person_id :integer</text>
</g>
<!-- User&#45;&gt;Jobpreference -->
<g id="edge6" class="edge"><title>User&#45;&gt;Jobpreference</title>
<path fill="none" stroke="#83a334" d="M996.029,-1015.9C1002.39,-1005.97 1008.44,-995.967 1014,-986 1160.31,-723.928 1103.09,-614.601 1252,-354 1262.19,-336.161 1268.51,-334.311 1281,-318 1293.97,-301.066 1307.51,-282.921 1320.55,-265.179"/>
<ellipse fill="none" stroke="#83a334" cx="993.753" cy="-1019.41" rx="4.00002" ry="4.00002"/>
<polygon fill="#83a334" stroke="#83a334" points="1320.59,-265.126 1330.13,-259.724 1323.54,-261.094 1326.5,-257.062 1326.5,-257.062 1326.5,-257.062 1323.54,-261.094 1322.87,-254.401 1320.59,-265.126 1320.59,-265.126"/>
</g>
<!-- Experience -->
<g id="node5" class="node"><title>Experience</title>
<path fill="none" stroke="black" d="M11.5,-23.5C11.5,-23.5 396.5,-23.5 396.5,-23.5 402.5,-23.5 408.5,-29.5 408.5,-35.5 408.5,-35.5 408.5,-282.5 408.5,-282.5 408.5,-288.5 402.5,-294.5 396.5,-294.5 396.5,-294.5 11.5,-294.5 11.5,-294.5 5.5,-294.5 -0.5,-288.5 -0.5,-282.5 -0.5,-282.5 -0.5,-35.5 -0.5,-35.5 -0.5,-29.5 5.5,-23.5 11.5,-23.5"/>
<text text-anchor="middle" x="204" y="-279.3" font-family="Times,serif" font-size="14.00">Experience</text>
<polyline fill="none" stroke="black" points="-0.5,-271.5 408.5,-271.5 "/>
<text text-anchor="start" x="7.5" y="-256.3" font-family="Times,serif" font-size="14.00">id :INTEGER</text>
<text text-anchor="start" x="7.5" y="-241.3" font-family="Times,serif" font-size="14.00">idExperiences :integer</text>
<text text-anchor="start" x="7.5" y="-226.3" font-family="Times,serif" font-size="14.00">Persons_idUser :integer</text>
<text text-anchor="start" x="7.5" y="-211.3" font-family="Times,serif" font-size="14.00">dateStarted :date</text>
<text text-anchor="start" x="7.5" y="-196.3" font-family="Times,serif" font-size="14.00">dateFinished :date</text>
<text text-anchor="start" x="7.5" y="-181.3" font-family="Times,serif" font-size="14.00">JobTitles_idJobTitles :integer(6)</text>
<text text-anchor="start" x="7.5" y="-166.3" font-family="Times,serif" font-size="14.00">otherJobTitle :varchar(45)</text>
<text text-anchor="start" x="7.5" y="-151.3" font-family="Times,serif" font-size="14.00">keyDuties :varchar(255)</text>
<text text-anchor="start" x="7.5" y="-136.3" font-family="Times,serif" font-size="14.00">EmploymentLevels_idLevelsOfEmployment :integer(4)</text>
<text text-anchor="start" x="7.5" y="-121.3" font-family="Times,serif" font-size="14.00">employerName :varchar(45)</text>
<text text-anchor="start" x="7.5" y="-106.3" font-family="Times,serif" font-size="14.00">verified :integer(1)</text>
<text text-anchor="start" x="7.5" y="-91.3" font-family="Times,serif" font-size="14.00">howVerified :varchar(45)</text>
<text text-anchor="start" x="7.5" y="-76.3" font-family="Times,serif" font-size="14.00">user_id :integer</text>
<text text-anchor="start" x="7.5" y="-61.3" font-family="Times,serif" font-size="14.00">created_at :datetime</text>
<text text-anchor="start" x="7.5" y="-46.3" font-family="Times,serif" font-size="14.00">updated_at :datetime</text>
<text text-anchor="start" x="7.5" y="-31.3" font-family="Times,serif" font-size="14.00">person_id :integer</text>
</g>
<!-- User&#45;&gt;Experience -->
<g id="edge3" class="edge"><title>User&#45;&gt;Experience</title>
<path fill="none" stroke="#e8e74a" d="M725.53,-1123.94C661.788,-1091.94 589.86,-1046.1 542,-986 357.867,-754.791 464.952,-619.471 335,-354 326.745,-337.137 317.204,-320.043 307.109,-303.35"/>
<ellipse fill="none" stroke="#e8e74a" cx="729.278" cy="-1125.8" rx="4.00002" ry="4.00002"/>
<polygon fill="#e8e74a" stroke="#e8e74a" points="307.009,-303.186 305.62,-292.309 304.396,-298.923 301.784,-294.66 301.784,-294.66 301.784,-294.66 304.396,-298.923 297.947,-297.012 307.009,-303.186 307.009,-303.186"/>
</g>
<!-- Person -->
<g id="node6" class="node"><title>Person</title>
<path fill="none" stroke="black" d="M593,-354.5C593,-354.5 907,-354.5 907,-354.5 913,-354.5 919,-360.5 919,-366.5 919,-366.5 919,-973.5 919,-973.5 919,-979.5 913,-985.5 907,-985.5 907,-985.5 593,-985.5 593,-985.5 587,-985.5 581,-979.5 581,-973.5 581,-973.5 581,-366.5 581,-366.5 581,-360.5 587,-354.5 593,-354.5"/>
<text text-anchor="middle" x="750" y="-970.3" font-family="Times,serif" font-size="14.00">Person</text>
<polyline fill="none" stroke="black" points="581,-962.5 919,-962.5 "/>
<text text-anchor="start" x="589" y="-947.3" font-family="Times,serif" font-size="14.00">id :INTEGER</text>
<text text-anchor="start" x="589" y="-932.3" font-family="Times,serif" font-size="14.00">title :varchar(10)</text>
<text text-anchor="start" x="589" y="-917.3" font-family="Times,serif" font-size="14.00">forename1 :varchar(45)</text>
<text text-anchor="start" x="589" y="-902.3" font-family="Times,serif" font-size="14.00">forename2 :varchar(45)</text>
<text text-anchor="start" x="589" y="-887.3" font-family="Times,serif" font-size="14.00">surname :varchar(45)</text>
<text text-anchor="start" x="589" y="-872.3" font-family="Times,serif" font-size="14.00">addressLine1 :varchar(45)</text>
<text text-anchor="start" x="589" y="-857.3" font-family="Times,serif" font-size="14.00">addressLine2 :varchar(45)</text>
<text text-anchor="start" x="589" y="-842.3" font-family="Times,serif" font-size="14.00">town :varchar(45)</text>
<text text-anchor="start" x="589" y="-827.3" font-family="Times,serif" font-size="14.00">postcode :varchar(10)</text>
<text text-anchor="start" x="589" y="-812.3" font-family="Times,serif" font-size="14.00">secondEmail :varchar(50)</text>
<text text-anchor="start" x="589" y="-797.3" font-family="Times,serif" font-size="14.00">personalUrl :varchar(64)</text>
<text text-anchor="start" x="589" y="-782.3" font-family="Times,serif" font-size="14.00">photo :blob</text>
<text text-anchor="start" x="589" y="-767.3" font-family="Times,serif" font-size="14.00">female :varchar</text>
<text text-anchor="start" x="589" y="-752.3" font-family="Times,serif" font-size="14.00">postcodeStart :varchar(10)</text>
<text text-anchor="start" x="589" y="-737.3" font-family="Times,serif" font-size="14.00">authorityToWorkStatement :varchar(255)</text>
<text text-anchor="start" x="589" y="-722.3" font-family="Times,serif" font-size="14.00">contactPreference :varchar</text>
<text text-anchor="start" x="589" y="-707.3" font-family="Times,serif" font-size="14.00">EducationalLevels_idEducatonLevel :integer</text>
<text text-anchor="start" x="589" y="-692.3" font-family="Times,serif" font-size="14.00">noOfGcses :integer</text>
<text text-anchor="start" x="589" y="-677.3" font-family="Times,serif" font-size="14.00">gecseEnglishGrade :varchar(2)</text>
<text text-anchor="start" x="589" y="-662.3" font-family="Times,serif" font-size="14.00">gcseMathsGrade :varchar(2)</text>
<text text-anchor="start" x="589" y="-647.3" font-family="Times,serif" font-size="14.00">fiveOrMoreGcses :integer(2)</text>
<text text-anchor="start" x="589" y="-632.3" font-family="Times,serif" font-size="14.00">noOfAlevels :integer(4)</text>
<text text-anchor="start" x="589" y="-617.3" font-family="Times,serif" font-size="14.00">ucasPoints :integer(4)</text>
<text text-anchor="start" x="589" y="-602.3" font-family="Times,serif" font-size="14.00">studentStatus :varchar(15)</text>
<text text-anchor="start" x="589" y="-587.3" font-family="Times,serif" font-size="14.00">mobile :varchar(16)</text>
<text text-anchor="start" x="589" y="-572.3" font-family="Times,serif" font-size="14.00">landline :varchar(16)</text>
<text text-anchor="start" x="589" y="-557.3" font-family="Times,serif" font-size="14.00">dob :date</text>
<text text-anchor="start" x="589" y="-542.3" font-family="Times,serif" font-size="14.00">penaltyPoints :integer(4)</text>
<text text-anchor="start" x="589" y="-527.3" font-family="Times,serif" font-size="14.00">user_id :integer</text>
<text text-anchor="start" x="589" y="-512.3" font-family="Times,serif" font-size="14.00">created_at :datetime</text>
<text text-anchor="start" x="589" y="-497.3" font-family="Times,serif" font-size="14.00">updated_at :datetime</text>
<text text-anchor="start" x="589" y="-482.3" font-family="Times,serif" font-size="14.00">photo_file_name :varchar</text>
<text text-anchor="start" x="589" y="-467.3" font-family="Times,serif" font-size="14.00">photo_content_type :varchar</text>
<text text-anchor="start" x="589" y="-452.3" font-family="Times,serif" font-size="14.00">photo_file_size :integer</text>
<text text-anchor="start" x="589" y="-437.3" font-family="Times,serif" font-size="14.00">photo_updated_at :datetime</text>
<text text-anchor="start" x="589" y="-422.3" font-family="Times,serif" font-size="14.00">mycv :varchar</text>
<text text-anchor="start" x="589" y="-407.3" font-family="Times,serif" font-size="14.00">mycv_file_name :varchar</text>
<text text-anchor="start" x="589" y="-392.3" font-family="Times,serif" font-size="14.00">mycv_content_type :varchar</text>
<text text-anchor="start" x="589" y="-377.3" font-family="Times,serif" font-size="14.00">mycv_file_size :integer</text>
<text text-anchor="start" x="589" y="-362.3" font-family="Times,serif" font-size="14.00">mycv_updated_at :datetime</text>
</g>
<!-- User&#45;&gt;Person -->
<g id="edge1" class="edge"><title>User&#45;&gt;Person</title>
<path fill="none" stroke="#0bea34" d="M826.996,-1014.78C825.588,-1008.49 824.161,-1002.12 822.719,-995.685"/>
<ellipse fill="none" stroke="#0bea34" cx="827.914" cy="-1018.88" rx="4.00001" ry="4.00001"/>
<polygon fill="#0bea34" stroke="#0bea34" points="822.628,-995.279 824.834,-984.537 821.536,-990.4 820.443,-985.52 820.443,-985.52 820.443,-985.52 821.536,-990.4 816.051,-986.504 822.628,-995.279 822.628,-995.279"/>
</g>
<!-- EducatioalQualification -->
<g id="node7" class="node"><title>EducatioalQualification</title>
<path fill="none" stroke="black" d="M922,-1C922,-1 1260,-1 1260,-1 1266,-1 1272,-7 1272,-13 1272,-13 1272,-305 1272,-305 1272,-311 1266,-317 1260,-317 1260,-317 922,-317 922,-317 916,-317 910,-311 910,-305 910,-305 910,-13 910,-13 910,-7 916,-1 922,-1"/>
<text text-anchor="middle" x="1091" y="-301.8" font-family="Times,serif" font-size="14.00">EducatioalQualification</text>
<polyline fill="none" stroke="black" points="910,-294 1272,-294 "/>
<text text-anchor="start" x="918" y="-278.8" font-family="Times,serif" font-size="14.00">id :INTEGER</text>
<text text-anchor="start" x="918" y="-263.8" font-family="Times,serif" font-size="14.00">idEducationalQualification :integer</text>
<text text-anchor="start" x="918" y="-248.8" font-family="Times,serif" font-size="14.00">Persons_idUser :integer</text>
<text text-anchor="start" x="918" y="-233.8" font-family="Times,serif" font-size="14.00">qualificationType :varchar(16)</text>
<text text-anchor="start" x="918" y="-218.8" font-family="Times,serif" font-size="14.00">courseName :varchar(100)</text>
<text text-anchor="start" x="918" y="-203.8" font-family="Times,serif" font-size="14.00">EducationalLevels_idEducationLevel :integer(3)</text>
<text text-anchor="start" x="918" y="-188.8" font-family="Times,serif" font-size="14.00">vocational :varchar(1)</text>
<text text-anchor="start" x="918" y="-173.8" font-family="Times,serif" font-size="14.00">mainSubject :varchar(45)</text>
<text text-anchor="start" x="918" y="-158.8" font-family="Times,serif" font-size="14.00">nameOfInstitutions :varchar(100)</text>
<text text-anchor="start" x="918" y="-143.8" font-family="Times,serif" font-size="14.00">country :varchar(45)</text>
<text text-anchor="start" x="918" y="-128.8" font-family="Times,serif" font-size="14.00">yearObtained :date</text>
<text text-anchor="start" x="918" y="-113.8" font-family="Times,serif" font-size="14.00">result :varchar(20)</text>
<text text-anchor="start" x="918" y="-98.8" font-family="Times,serif" font-size="14.00">thesesTitle :varchar(200)</text>
<text text-anchor="start" x="918" y="-83.8" font-family="Times,serif" font-size="14.00">verified :integer(1)</text>
<text text-anchor="start" x="918" y="-68.8" font-family="Times,serif" font-size="14.00">howVerified :varchar(45)</text>
<text text-anchor="start" x="918" y="-53.8" font-family="Times,serif" font-size="14.00">created_at :datetime</text>
<text text-anchor="start" x="918" y="-38.8" font-family="Times,serif" font-size="14.00">updated_at :datetime</text>
<text text-anchor="start" x="918" y="-23.8" font-family="Times,serif" font-size="14.00">user_id :integer</text>
<text text-anchor="start" x="918" y="-8.8" font-family="Times,serif" font-size="14.00">person_id :integer</text>
</g>
<!-- User&#45;&gt;EducatioalQualification -->
<g id="edge2" class="edge"><title>User&#45;&gt;EducatioalQualification</title>
<path fill="none" stroke="#2916c3" d="M943.282,-1015.36C946.84,-1005.53 950.119,-995.695 953,-986 1033.9,-713.789 994.668,-633.115 1047,-354 1048.66,-345.151 1050.44,-336.092 1052.29,-326.958"/>
<ellipse fill="none" stroke="#2916c3" cx="941.893" cy="-1019.12" rx="4.00001" ry="4.00001"/>
<polygon fill="#2916c3" stroke="#2916c3" points="1052.32,-326.818 1058.74,-317.929 1053.33,-321.921 1054.33,-317.023 1054.33,-317.023 1054.33,-317.023 1053.33,-321.921 1049.92,-316.118 1052.32,-326.818 1052.32,-326.818"/>
</g>
<!-- Referee -->
<g id="node8" class="node"><title>Referee</title>
<path fill="none" stroke="black" d="M438.5,-23.5C438.5,-23.5 667.5,-23.5 667.5,-23.5 673.5,-23.5 679.5,-29.5 679.5,-35.5 679.5,-35.5 679.5,-282.5 679.5,-282.5 679.5,-288.5 673.5,-294.5 667.5,-294.5 667.5,-294.5 438.5,-294.5 438.5,-294.5 432.5,-294.5 426.5,-288.5 426.5,-282.5 426.5,-282.5 426.5,-35.5 426.5,-35.5 426.5,-29.5 432.5,-23.5 438.5,-23.5"/>
<text text-anchor="middle" x="553" y="-279.3" font-family="Times,serif" font-size="14.00">Referee</text>
<polyline fill="none" stroke="black" points="426.5,-271.5 679.5,-271.5 "/>
<text text-anchor="start" x="434.5" y="-256.3" font-family="Times,serif" font-size="14.00">id :INTEGER</text>
<text text-anchor="start" x="434.5" y="-241.3" font-family="Times,serif" font-size="14.00">idReferees :integer</text>
<text text-anchor="start" x="434.5" y="-226.3" font-family="Times,serif" font-size="14.00">Persons_idUser :integer</text>
<text text-anchor="start" x="434.5" y="-211.3" font-family="Times,serif" font-size="14.00">title :varchar(10)</text>
<text text-anchor="start" x="434.5" y="-196.3" font-family="Times,serif" font-size="14.00">forename :varchar(45)</text>
<text text-anchor="start" x="434.5" y="-181.3" font-family="Times,serif" font-size="14.00">surname :varchar(45)</text>
<text text-anchor="start" x="434.5" y="-166.3" font-family="Times,serif" font-size="14.00">email :varchar(50)</text>
<text text-anchor="start" x="434.5" y="-151.3" font-family="Times,serif" font-size="14.00">contactPhone :varchar(16)</text>
<text text-anchor="start" x="434.5" y="-136.3" font-family="Times,serif" font-size="14.00">relationship :varchar(50)</text>
<text text-anchor="start" x="434.5" y="-121.3" font-family="Times,serif" font-size="14.00">permissionToContact :varchar(1)</text>
<text text-anchor="start" x="434.5" y="-106.3" font-family="Times,serif" font-size="14.00">verified :integer(1)</text>
<text text-anchor="start" x="434.5" y="-91.3" font-family="Times,serif" font-size="14.00">howVerified :varchar(45)</text>
<text text-anchor="start" x="434.5" y="-76.3" font-family="Times,serif" font-size="14.00">referenceDoc :varchar</text>
<text text-anchor="start" x="434.5" y="-61.3" font-family="Times,serif" font-size="14.00">user_id :integer</text>
<text text-anchor="start" x="434.5" y="-46.3" font-family="Times,serif" font-size="14.00">created_at :datetime</text>
<text text-anchor="start" x="434.5" y="-31.3" font-family="Times,serif" font-size="14.00">updated_at :datetime</text>
</g>
<!-- User&#45;&gt;Referee -->
<g id="edge4" class="edge"><title>User&#45;&gt;Referee</title>
<path fill="none" stroke="#604e90" d="M725.59,-1123.53C667.436,-1092.16 605.592,-1046.95 572,-986 540.124,-928.159 544.278,-526.042 549.119,-304.937"/>
<ellipse fill="none" stroke="#604e90" cx="729.129" cy="-1125.41" rx="4.00002" ry="4.00002"/>
<polygon fill="#604e90" stroke="#604e90" points="549.121,-304.87 553.842,-294.972 549.232,-299.871 549.343,-294.872 549.343,-294.872 549.343,-294.872 549.232,-299.871 544.844,-294.772 549.121,-304.87 549.121,-304.87"/>
</g>
<!-- Person&#45;&gt;Skill -->
<g id="edge12" class="edge"><title>Person&#45;&gt;Skill</title>
<path fill="none" stroke="#252a01" d="M778.546,-346.114C780.52,-323.785 782.427,-302.214 784.2,-282.162"/>
<ellipse fill="none" stroke="#252a01" cx="778.179" cy="-350.262" rx="4" ry="4"/>
<polygon fill="#252a01" stroke="#252a01" points="784.206,-282.094 789.569,-272.529 784.646,-277.113 785.087,-272.133 785.087,-272.133 785.087,-272.133 784.646,-277.113 780.604,-271.736 784.206,-282.094 784.206,-282.094"/>
</g>
<!-- Person&#45;&gt;Jobpreference -->
<g id="edge15" class="edge"><title>Person&#45;&gt;Jobpreference</title>
<path fill="none" stroke="#951fb8" d="M925.038,-444.473C961.813,-409.386 1002.95,-377.144 1047,-354 1140.15,-305.063 1191.14,-372.742 1281,-318 1302.74,-304.755 1321.62,-285.7 1337.44,-265.378"/>
<ellipse fill="none" stroke="#951fb8" cx="922.053" cy="-447.351" rx="4.00002" ry="4.00002"/>
<polygon fill="#951fb8" stroke="#951fb8" points="1337.56,-265.216 1347.18,-259.937 1340.57,-261.223 1343.58,-257.229 1343.58,-257.229 1343.58,-257.229 1340.57,-261.223 1339.99,-254.521 1337.56,-265.216 1337.56,-265.216"/>
</g>
<!-- Person&#45;&gt;Experience -->
<g id="edge13" class="edge"><title>Person&#45;&gt;Experience</title>
<path fill="none" stroke="#cf7c5f" d="M575.14,-393.782C560.539,-379.33 545.143,-365.894 529,-354 486.906,-322.985 463.507,-341.894 417,-318 406.175,-312.438 395.314,-306.34 384.54,-299.876"/>
<ellipse fill="none" stroke="#cf7c5f" cx="578.093" cy="-396.752" rx="4.00002" ry="4.00002"/>
<polygon fill="#cf7c5f" stroke="#cf7c5f" points="384.458,-299.826 378.265,-290.776 380.189,-297.222 375.921,-294.617 375.921,-294.617 375.921,-294.617 380.189,-297.222 373.577,-298.459 384.458,-299.826 384.458,-299.826"/>
</g>
<!-- Person&#45;&gt;EducatioalQualification -->
<g id="edge11" class="edge"><title>Person&#45;&gt;EducatioalQualification</title>
<path fill="none" stroke="#cd5179" d="M923.539,-409.964C942.807,-381.203 962.024,-352.518 980.204,-325.382"/>
<ellipse fill="none" stroke="#cd5179" cx="921.228" cy="-413.414" rx="4.00002" ry="4.00002"/>
<polygon fill="#cd5179" stroke="#cd5179" points="980.246,-325.319 989.55,-319.516 983.029,-321.165 985.812,-317.011 985.812,-317.011 985.812,-317.011 983.029,-321.165 982.073,-314.507 980.246,-325.319 980.246,-325.319"/>
</g>
<!-- Person&#45;&gt;Referee -->
<g id="edge14" class="edge"><title>Person&#45;&gt;Referee</title>
<path fill="none" stroke="#8f991a" d="M625.19,-346.521C619.543,-331.931 614.02,-317.661 608.704,-303.926"/>
<ellipse fill="none" stroke="#8f991a" cx="626.736" cy="-350.516" rx="4.00001" ry="4.00001"/>
<polygon fill="#8f991a" stroke="#8f991a" points="608.667,-303.83 609.254,-292.88 606.862,-299.167 605.058,-294.504 605.058,-294.504 605.058,-294.504 606.862,-299.167 600.861,-296.128 608.667,-303.83 608.667,-303.83"/>
</g>
<!-- ActiveRecord::Base -->
<g id="node9" class="node"><title>ActiveRecord::Base</title>
<ellipse fill="none" stroke="black" cx="864" cy="-1415" rx="102.061" ry="18"/>
<text text-anchor="middle" x="864" y="-1411.3" font-family="Times,serif" font-size="14.00">ActiveRecord::Base</text>
</g>
<!-- ActiveRecord::Base&#45;&gt;User -->
<g id="edge7" class="edge"><title>ActiveRecord::Base&#45;&gt;User</title>
<path fill="none" stroke="black" d="M864,-1396.94C864,-1383.23 864,-1362.47 864,-1339.16"/>
</g>
<!-- ActiveRecord::Base&#45;&gt;Skill -->
<g id="edge8" class="edge"><title>ActiveRecord::Base&#45;&gt;Skill</title>
<path fill="none" stroke="black" d="M919.666,-1399.86C950.291,-1388.93 985.697,-1370.38 1004,-1340 1091.35,-1195.03 1058.26,-537.539 953,-354 939.015,-329.616 920.73,-338.021 901,-318 887.321,-304.119 874.316,-288.244 862.402,-272.031"/>
</g>
<!-- ActiveRecord::Base&#45;&gt;Jobpreference -->
<g id="edge9" class="edge"><title>ActiveRecord::Base&#45;&gt;Jobpreference</title>
<path fill="none" stroke="black" d="M960.332,-1409.03C1013.78,-1401.21 1077.45,-1382.72 1118,-1340 1409.42,-1032.98 1414.53,-480.037 1403.33,-257.091"/>
</g>
<!-- ActiveRecord::Base&#45;&gt;Experience -->
<g id="edge10" class="edge"><title>ActiveRecord::Base&#45;&gt;Experience</title>
<path fill="none" stroke="black" d="M823.236,-1398.46C802.198,-1390.88 775.978,-1382.1 752,-1376 661.08,-1352.86 613.86,-1402.62 544,-1340 239.793,-1067.31 200.501,-541.697 199.977,-294.593"/>
</g>
<!-- ActiveRecord::Base&#45;&gt;Person -->
<g id="edge16" class="edge"><title>ActiveRecord::Base&#45;&gt;Person</title>
<path fill="none" stroke="black" d="M808.334,-1399.86C777.709,-1388.93 742.303,-1370.38 724,-1340 661.014,-1235.46 654.07,-1104.14 667.792,-985.579"/>
</g>
<!-- ActiveRecord::Base&#45;&gt;EducatioalQualification -->
<g id="edge17" class="edge"><title>ActiveRecord::Base&#45;&gt;EducatioalQualification</title>
<path fill="none" stroke="black" d="M937.778,-1402.53C975.408,-1392.61 1018.16,-1374.17 1042,-1340 1256.98,-1031.85 1189.3,-560.23 1133.46,-317.065"/>
</g>
<!-- ActiveRecord::Base&#45;&gt;Referee -->
<g id="edge18" class="edge"><title>ActiveRecord::Base&#45;&gt;Referee</title>
<path fill="none" stroke="black" d="M819.64,-1398.69C759.714,-1377.92 659.971,-1343.06 657,-1340 541.747,-1221.33 567.874,-1149.39 542,-986 503.811,-744.84 521.281,-459.121 537.27,-294.769"/>
</g>
</g>
</svg>
